<?xml version="1.0" encoding="UTF-8" standalone="no"?>
<!-- Created with Inkscape (http://www.inkscape.org/) -->

<svg
   xmlns:dc="http://purl.org/dc/elements/1.1/"
   xmlns:cc="http://creativecommons.org/ns#"
   xmlns:rdf="http://www.w3.org/1999/02/22-rdf-syntax-ns#"
   xmlns:svg="http://www.w3.org/2000/svg"
   xmlns="http://www.w3.org/2000/svg"
   xmlns:sodipodi="http://sodipodi.sourceforge.net/DTD/sodipodi-0.dtd"
   xmlns:inkscape="http://www.inkscape.org/namespaces/inkscape"
   width="212mm"
   height="297mm"
   viewBox="0 0 212 297"
   version="1.1"
   id="svg8"
   inkscape:version="0.92.3 (2405546, 2018-03-11)"
   sodipodi:docname="alien.svg">
  <defs
     id="defs2">
    <clipPath
       clipPathUnits="userSpaceOnUse"
       id="clipPath962">
      <g
         transform="translate(-33.442101,-52.184375)"
         id="g970">
        <path
           style="opacity:1;fill:#3d49fb;fill-opacity:1;stroke:none;stroke-width:4.81093121;stroke-miterlimit:4;stroke-dasharray:none;stroke-opacity:1"
           d="m 27.970016,-429.09239 a 83.154763,77.674109 0 0 0 -83.154615,77.67434 83.154763,77.674109 0 0 0 83.154615,77.67381 83.154763,77.674109 0 0 0 83.155134,-77.67381 83.154763,77.674109 0 0 0 -83.155134,-77.67434 z m 1.134298,10.96161 a 51.404762,49.325894 0 0 1 51.404617,49.32566 51.404762,49.325894 0 0 1 -51.404617,49.32569 51.404762,49.325894 0 0 1 -51.405131,-49.32569 51.404762,49.325894 0 0 1 51.405131,-49.32566 z"
           id="path964"
           inkscape:connector-curvature="0" />
        <path
           style="opacity:1;fill:#3d49fb;fill-opacity:1;stroke:none;stroke-width:8.5798502;stroke-miterlimit:4;stroke-dasharray:none;stroke-opacity:1"
           d="m -40.819355,-443.28969 c -2.24777,-2.38657 10.371806,-5.22412 11.774229,-2.54473 9.092214,17.37111 12.122463,23.86863 15.066972,33.51431 0.851272,2.7886 -12.672001,5.32632 -11.77423,2.54473 3.988891,-12.35881 -5.008171,-22.83434 -15.066971,-33.51431 z"
           id="path966"
           inkscape:connector-curvature="0"
           sodipodi:nodetypes="sssss" />
        <path
           sodipodi:nodetypes="sssss"
           inkscape:connector-curvature="0"
           id="path968"
           d="m 96.89978,-434.74169 c 1.829061,-1.41342 -4.067352,-5.92842 -5.529101,-4.13377 -9.476838,11.63513 -12.825959,16.05585 -16.977623,22.90653 -1.200263,1.98056 5.253864,6.43314 5.529099,4.13378 1.222883,-10.2163 8.792534,-16.58144 16.977625,-22.90654 z"
           style="opacity:1;fill:#3d49fb;fill-opacity:1;stroke:none;stroke-width:5.78512478;stroke-miterlimit:4;stroke-dasharray:none;stroke-opacity:1" />
      </g>
    </clipPath>
  </defs>
  <sodipodi:namedview
     id="base"
     pagecolor="#ffffff"
     bordercolor="#666666"
     borderopacity="1.0"
     inkscape:pageopacity="0"
     inkscape:pageshadow="2"
     inkscape:zoom="0.49497475"
     inkscape:cx="146.07221"
     inkscape:cy="673.61952"
     inkscape:document-units="px"
     inkscape:current-layer="layer1"
     showgrid="false"
     showborder="true"
     inkscape:pagecheckerboard="true"
     inkscape:window-width="1600"
     inkscape:window-height="837"
     inkscape:window-x="-8"
     inkscape:window-y="-8"
     inkscape:window-maximized="1" />
  <metadata
     id="metadata5">
    <rdf:RDF>
      <cc:Work
         rdf:about="">
        <dc:format>image/svg+xml</dc:format>
        <dc:type
           rdf:resource="http://purl.org/dc/dcmitype/StillImage" />
        <dc:title></dc:title>
      </cc:Work>
    </rdf:RDF>
  </metadata>
  <g
     inkscape:label="Layer 1"
     inkscape:groupmode="layer"
     id="layer1">
    <g
       id="g923"
       transform="matrix(1.2452111,0,0,1.2452111,-27.927734,-37.037573)">
      <g
         transform="translate(129.48927,543.66734)"
         id="g44">
        <g
           id="g1000"
           transform="translate(-15.875001,-4.1577382)">
          <g
             transform="translate(-33.442101,-52.184376)"
             id="g931">
            <path
               style="opacity:1;fill:#3d49fb;fill-opacity:1;stroke:none;stroke-width:4.81093121;stroke-miterlimit:4;stroke-dasharray:none;stroke-opacity:1"
               d="m 27.970016,-429.09239 a 83.154763,77.674109 0 0 0 -83.154615,77.67434 83.154763,77.674109 0 0 0 83.154615,77.67381 83.154763,77.674109 0 0 0 83.155134,-77.67381 83.154763,77.674109 0 0 0 -83.155134,-77.67434 z m 1.134298,10.96161 a 51.404762,49.325894 0 0 1 51.404617,49.32566 51.404762,49.325894 0 0 1 -51.404617,49.32569 51.404762,49.325894 0 0 1 -51.405131,-49.32569 51.404762,49.325894 0 0 1 51.405131,-49.32566 z"
               id="path815"
               inkscape:connector-curvature="0" />
            <path
               style="opacity:1;fill:#3d49fb;fill-opacity:1;stroke:none;stroke-width:8.5798502;stroke-miterlimit:4;stroke-dasharray:none;stroke-opacity:1"
               d="m -40.819355,-443.28969 c -2.24777,-2.38657 10.371806,-5.22412 11.774229,-2.54473 9.092214,17.37111 12.122463,23.86863 15.066972,33.51431 0.851272,2.7886 -12.672001,5.32632 -11.77423,2.54473 3.988891,-12.35881 -5.008171,-22.83434 -15.066971,-33.51431 z"
               id="rect923"
               inkscape:connector-curvature="0"
               sodipodi:nodetypes="sssss" />
            <path
               sodipodi:nodetypes="sssss"
               inkscape:connector-curvature="0"
               id="path926"
               d="m 96.89978,-434.74169 c 1.829061,-1.41342 -4.067352,-5.92842 -5.529101,-4.13377 -9.476838,11.63513 -12.825959,16.05585 -16.977623,22.90653 -1.200263,1.98056 5.253864,6.43314 5.529099,4.13378 1.222883,-10.2163 8.792534,-16.58144 16.977625,-22.90654 z"
               style="opacity:1;fill:#3d49fb;fill-opacity:1;stroke:none;stroke-width:5.78512478;stroke-miterlimit:4;stroke-dasharray:none;stroke-opacity:1" />
          </g>
          <ellipse
             ry="10.510616"
             rx="9.6629505"
             cy="-346.07553"
             cx="-34.093281"
             id="ellipse946"
             style="opacity:1;fill:#6d34c3;fill-opacity:1;stroke:none;stroke-width:4.21136236;stroke-miterlimit:4;stroke-dasharray:none;stroke-opacity:1" />
          <g
             id="g985">
            <ellipse
               style="opacity:1;fill:#6d34c3;fill-opacity:1;stroke:none;stroke-width:1.27989852;stroke-miterlimit:4;stroke-dasharray:none;stroke-opacity:1"
               id="path942"
               cx="-49.728546"
               cy="-344.20468"
               rx="2.8475776"
               ry="3.2943387" />
            <ellipse
               ry="6.9024773"
               rx="10.732029"
               cy="-357.96906"
               cx="-58.949348"
               id="ellipse944"
               style="opacity:1;fill:#6d34c3;fill-opacity:1;stroke:none;stroke-width:3.59664059;stroke-miterlimit:4;stroke-dasharray:none;stroke-opacity:1" />
            <ellipse
               ry="1.8243564"
               rx="1.9121341"
               cy="-358.50357"
               cx="-43.714989"
               id="ellipse948"
               style="opacity:1;fill:#6d34c3;fill-opacity:1;stroke:none;stroke-width:0.78049058;stroke-miterlimit:4;stroke-dasharray:none;stroke-opacity:1" />
            <ellipse
               style="opacity:1;fill:#6d34c3;fill-opacity:1;stroke:none;stroke-width:0.78049058;stroke-miterlimit:4;stroke-dasharray:none;stroke-opacity:1"
               id="ellipse950"
               cx="-47.891075"
               cy="-351.18707"
               rx="1.9121341"
               ry="1.8243564" />
            <ellipse
               ry="3.0771825"
               rx="3.8665426"
               cy="-344.05426"
               cx="-58.565151"
               id="ellipse952"
               style="opacity:1;fill:#6d34c3;fill-opacity:1;stroke:none;stroke-width:1.44142377;stroke-miterlimit:4;stroke-dasharray:none;stroke-opacity:1"
               clip-path="url(#clipPath962)" />
            <ellipse
               style="opacity:1;fill:#3d49fb;fill-opacity:1;stroke:none;stroke-width:6.00000048;stroke-miterlimit:4;stroke-dasharray:none;stroke-opacity:1"
               id="path972"
               cx="-71.34301"
               cy="-499.67932"
               rx="22.017115"
               ry="8.598959" />
            <ellipse
               ry="6.0598984"
               rx="11.059063"
               cy="-487.89655"
               cx="58.734921"
               id="ellipse976"
               style="opacity:1;fill:#3d49fb;fill-opacity:1;stroke:none;stroke-width:3.56976819;stroke-miterlimit:4;stroke-dasharray:none;stroke-opacity:1" />
          </g>
        </g>
        <ellipse
           style="opacity:1;fill:#6d34c3;fill-opacity:1;stroke:none;stroke-width:6.00000048;stroke-miterlimit:4;stroke-dasharray:none;stroke-opacity:1"
           id="path1004"
           cx="-86.273064"
           cy="-502.32516"
           rx="12.756697"
           ry="3.8742561" />
        <ellipse
           ry="1.6063989"
           rx="5.7168903"
           cy="-490.04095"
           cx="42.475079"
           id="ellipse1008"
           style="opacity:1;fill:#6d34c3;fill-opacity:1;stroke:none;stroke-width:2.58639359;stroke-miterlimit:4;stroke-dasharray:none;stroke-opacity:1" />
      </g>
      <path
         inkscape:connector-curvature="0"
         id="path65"
         d="m 42.909035,31.381454 a 21.258455,8.4959582 0 0 0 -12.741213,1.705433 21.258455,8.4959582 0 0 1 7.54035,-0.555798 21.258455,8.4959582 0 0 1 21.258484,8.496038 21.258455,8.4959582 0 0 1 -8.51677,6.790609 21.258455,8.4959582 0 0 0 13.717634,-7.940244 21.258455,8.4959582 0 0 0 -21.258485,-8.496038 z"
         style="opacity:1;fill:#303061;fill-opacity:0.63333333;stroke:none;stroke-width:8.16316319;stroke-miterlimit:4;stroke-dasharray:none;stroke-opacity:1" />
      <path
         inkscape:connector-curvature="0"
         id="path882"
         d="m 172.13178,45.594356 a 11.061516,5.9271587 0.370434 0 0 -7.31188,1.56961 11.061516,5.9271587 0.370434 0 1 5.28137,-0.771609 11.061516,5.9271587 0.370434 0 1 11.2959,5.850934 11.061516,5.9271587 0.370434 0 1 -3.50818,4.432479 11.061516,5.9271587 0.370434 0 0 5.53869,-5.230478 11.061516,5.9271587 0.370434 0 0 -11.2959,-5.850936 z"
         style="opacity:1;fill:#343999;fill-opacity:1;stroke:none;stroke-width:5.98438931;stroke-miterlimit:4;stroke-dasharray:none;stroke-opacity:1" />
      <path
         inkscape:connector-curvature="0"
         id="path896"
         d="M 154.17941,71.666946 A 83.041869,77.205524 0 0 1 176.75,124.50254 83.041869,77.205524 0 0 1 93.708136,201.70803 83.041869,77.205524 0 0 1 47.945396,188.86507 83.041869,77.205524 0 0 0 108.4177,213.2355 83.041869,77.205524 0 0 0 191.45956,136.03 83.041869,77.205524 0 0 0 154.17941,71.666946 Z"
         style="opacity:1;fill:#343999;fill-opacity:1;stroke:none;stroke-width:6.3573904;stroke-miterlimit:4;stroke-dasharray:none;stroke-opacity:1" />
    </g>
  </g>
</svg>
